<?xml version="1.0" standalone="no"?>
<!DOCTYPE svg PUBLIC "-//W3C//DTD SVG 20010904//EN"
 "http://www.w3.org/TR/2001/REC-SVG-20010904/DTD/svg10.dtd">
<svg version="1.0" xmlns="http://www.w3.org/2000/svg"
 width="1500.000000pt" height="2000.000000pt" viewBox="0 0 1500.000000 2000.000000"
 preserveAspectRatio="xMidYMid meet">
<metadata>
Created by potrace 1.13, written by Peter Selinger 2001-2015
</metadata>
<g transform="translate(0.000000,2000.000000) scale(0.100000,-0.100000)"
fill="#797E82" stroke="none">
<path d="M10424 18512 c-23 -15 -56 -45 -75 -67 -19 -22 -38 -45 -44 -51 -5
-6 -37 -45 -70 -87 -33 -43 -63 -77 -67 -77 -4 0 -17 18 -28 40 -30 58 -66 69
-135 41 -11 -5 -51 -21 -90 -36 -38 -14 -78 -31 -88 -36 -126 -67 -166 -92
-252 -155 -55 -40 -136 -97 -180 -126 -50 -33 -99 -77 -133 -118 -29 -36 -104
-128 -166 -205 -63 -77 -125 -152 -138 -166 -12 -14 -45 -52 -72 -83 -48 -55
-51 -57 -87 -51 -21 4 -63 3 -93 0 -51 -7 -63 -14 -173 -106 -169 -143 -502
-490 -574 -597 -180 -273 -327 -502 -343 -537 -11 -22 -60 -123 -109 -225
-131 -272 -149 -311 -206 -465 -29 -77 -57 -150 -62 -162 -54 -134 -159 -428
-185 -518 -9 -33 -25 -87 -35 -120 -9 -33 -25 -87 -34 -120 -10 -33 -23 -78
-30 -100 -7 -22 -18 -69 -24 -105 -7 -36 -16 -87 -21 -115 -36 -192 -61 -492
-61 -705 1 -302 14 -451 53 -609 19 -75 20 -102 14 -235 -17 -384 -28 -499
-65 -651 -6 -22 -15 -60 -21 -85 -30 -123 -32 -151 -27 -328 5 -154 9 -189 27
-229 11 -25 18 -48 15 -51 -6 -6 -83 16 -260 73 -116 38 -147 44 -285 54 -191
14 -271 14 -363 1 -168 -25 -208 -31 -322 -50 -66 -12 -145 -25 -175 -30 -149
-26 -479 -104 -555 -132 -97 -37 -356 -185 -462 -265 -65 -49 -131 -99 -148
-110 -16 -12 -80 -72 -141 -134 -123 -127 -147 -153 -500 -545 -62 -69 -160
-160 -263 -245 -178 -144 -195 -157 -256 -181 -22 -9 -76 -33 -120 -53 -112
-52 -163 -75 -215 -97 -61 -27 -131 -44 -360 -89 -405 -80 -480 -113 -480
-206 0 -37 7 -52 41 -93 33 -39 56 -54 132 -86 51 -21 101 -44 113 -51 19 -12
156 -42 309 -67 39 -6 75 -14 82 -19 6 -4 35 -9 63 -11 28 -3 57 -9 63 -14 7
-5 35 -14 62 -20 28 -7 91 -21 140 -32 50 -11 153 -25 230 -30 77 -6 185 -14
240 -20 55 -5 152 -14 215 -19 145 -13 724 -14 890 -1 69 6 188 15 265 20 77
6 176 17 220 25 44 9 96 18 115 21 19 3 53 9 75 14 22 5 81 16 130 25 50 9
108 20 130 25 60 13 140 28 240 45 99 18 130 24 255 55 82 21 115 29 320 84
52 13 138 36 190 50 271 71 237 57 585 242 66 35 154 97 260 182 107 87 162
126 167 118 36 -63 56 -245 39 -361 -6 -38 -13 -90 -16 -115 -14 -110 -81
-245 -216 -437 -37 -52 -68 -118 -118 -250 l-69 -178 -8 -160 c-11 -206 -11
-391 0 -432 l9 -33 -54 0 c-50 0 -61 5 -139 60 -48 34 -100 62 -120 66 -48 7
-116 21 -170 34 -66 16 -484 30 -550 19 -30 -6 -77 -14 -105 -19 -27 -5 -93
-17 -145 -26 -110 -18 -190 -35 -275 -59 -33 -9 -139 -36 -235 -60 -97 -24
-256 -74 -355 -110 -99 -35 -183 -65 -187 -65 -3 0 -55 -30 -115 -67 -330
-203 -310 -188 -485 -362 -92 -91 -189 -197 -215 -234 -26 -38 -114 -155 -195
-260 -139 -182 -156 -200 -315 -335 l-168 -143 -215 -105 c-118 -58 -260 -128
-315 -155 -55 -27 -113 -53 -130 -58 -16 -5 -75 -26 -130 -46 -160 -58 -206
-75 -270 -96 -33 -11 -69 -24 -80 -29 -68 -31 -206 -68 -326 -89 -31 -5 -75
-18 -98 -28 -35 -15 -43 -25 -52 -58 -6 -22 -15 -50 -20 -63 -7 -17 -2 -33 25
-75 l34 -52 148 -49 c154 -50 326 -85 454 -92 339 -19 591 -36 676 -46 78 -9
125 -9 200 0 55 7 176 17 269 23 94 6 233 15 310 20 77 5 208 13 290 18 83 5
195 14 250 20 55 6 147 16 205 22 161 16 271 30 310 39 33 9 87 19 410 76 232
41 199 34 560 127 74 20 214 55 310 80 96 24 213 59 260 77 75 28 451 170 505
190 19 7 34 13 100 40 41 16 382 244 484 323 80 61 86 64 107 51 43 -29 46
-56 41 -331 -8 -429 -13 -467 -102 -732 l-76 -226 -59 -61 c-93 -96 -157 -233
-271 -579 -16 -49 -33 -99 -38 -110 -22 -52 -34 -103 -42 -178 -8 -81 -17
-147 -40 -322 -6 -49 -14 -202 -18 -339 l-6 -249 -105 113 c-112 121 -117 124
-395 250 -27 12 -88 41 -135 63 l-85 41 -395 -1 c-334 -1 -404 -4 -455 -18
-33 -9 -105 -28 -160 -41 -82 -21 -129 -41 -265 -116 -271 -149 -318 -177
-480 -283 -85 -56 -194 -127 -241 -157 -47 -31 -128 -87 -180 -124 -52 -38
-104 -76 -116 -84 -24 -17 -339 -243 -483 -347 -52 -38 -111 -76 -130 -85 -19
-9 -64 -30 -100 -46 -36 -16 -132 -62 -215 -102 -188 -90 -379 -175 -436 -194
-24 -8 -98 -28 -164 -45 -129 -32 -272 -70 -510 -132 -82 -22 -184 -49 -225
-59 -41 -10 -109 -30 -150 -44 -41 -15 -106 -31 -143 -36 -80 -12 -138 -37
-116 -51 11 -8 9 -14 -14 -34 -15 -13 -27 -28 -27 -33 0 -4 -18 -21 -39 -38
-38 -28 -39 -30 -35 -79 6 -61 14 -70 68 -84 23 -6 53 -19 67 -29 13 -11 42
-25 64 -32 22 -7 42 -16 45 -20 3 -4 22 -15 42 -23 21 -9 38 -21 38 -26 0 -17
77 -47 190 -76 58 -15 112 -31 121 -36 25 -13 216 -49 339 -64 14 -2 50 -8 80
-14 234 -45 459 -71 715 -81 149 -6 367 -15 485 -20 288 -12 1540 -12 1710 1
564 41 629 47 700 62 36 9 88 20 115 26 28 6 104 22 170 37 66 14 140 30 165
34 51 10 208 51 380 100 41 12 98 28 125 35 28 8 75 21 105 30 30 9 96 22 145
30 l90 15 51 -57 c46 -51 59 -77 142 -292 51 -130 92 -246 92 -257 0 -12 4
-34 9 -50 5 -16 16 -74 26 -129 9 -55 20 -118 25 -140 5 -22 13 -67 19 -100
16 -90 41 -227 47 -252 l4 -23 341 0 c324 0 340 1 335 18 -8 25 -102 669 -127
864 -25 206 -35 250 -123 555 -95 326 -170 518 -255 650 -46 71 -107 251 -147
433 -24 112 -28 151 -32 363 -6 353 13 527 94 852 38 150 96 300 121 309 8 4
25 0 38 -6 12 -7 53 -30 91 -50 113 -62 147 -81 197 -116 26 -17 50 -32 52
-32 2 0 41 -22 87 -48 213 -123 600 -273 1168 -452 124 -39 235 -75 248 -81
13 -5 43 -9 67 -9 24 0 54 -4 67 -10 13 -5 97 -32 188 -61 91 -28 199 -62 240
-76 41 -14 117 -29 169 -34 52 -6 99 -12 103 -15 5 -3 34 -9 66 -14 94 -14
423 -69 477 -80 28 -5 113 -16 190 -25 77 -9 169 -20 205 -25 158 -22 246 -30
405 -35 94 -3 288 -10 433 -16 216 -10 345 -9 735 5 515 18 568 21 642 35 28
5 75 14 105 19 30 6 74 20 97 31 23 12 47 21 53 21 6 0 10 28 10 71 0 57 -5
79 -26 117 -35 64 -42 70 -99 82 -28 6 -68 15 -90 21 -22 5 -71 14 -108 19
-38 5 -85 14 -105 19 -61 17 -165 42 -202 50 -19 4 -102 31 -185 60 -82 29
-193 66 -245 83 -52 16 -99 34 -105 38 -5 4 -48 22 -95 40 -47 17 -98 38 -115
45 -16 8 -77 33 -135 56 -122 48 -119 46 -326 225 -88 75 -202 168 -254 208
-52 39 -153 123 -224 186 -71 63 -177 158 -236 210 -118 105 -110 96 -296 373
-124 186 -141 206 -251 305 -65 58 -140 128 -168 155 -54 52 -77 64 -574 299
-46 22 -154 63 -240 93 -86 29 -201 69 -256 88 -98 34 -105 35 -355 48 -230
11 -270 11 -395 -5 -77 -9 -157 -21 -177 -26 -60 -16 -108 -27 -183 -45 -38
-9 -90 -27 -115 -40 -25 -13 -85 -44 -133 -69 -48 -25 -90 -46 -92 -46 -2 0
-5 165 -7 368 l-4 367 -32 125 c-38 145 -49 190 -65 245 -20 72 -130 255 -225
374 -97 121 -100 128 -127 276 -21 117 -34 179 -48 235 -14 55 -13 193 2 286
6 38 13 90 16 117 7 51 23 60 67 36 20 -11 217 -157 228 -169 3 -3 42 -33 88
-68 79 -59 134 -89 552 -289 74 -36 180 -78 235 -95 55 -16 147 -44 205 -63
58 -18 139 -43 180 -55 41 -12 93 -28 115 -35 22 -7 74 -23 115 -35 41 -12 93
-28 115 -35 40 -12 105 -23 315 -50 63 -8 145 -20 183 -25 76 -11 155 -23 303
-45 111 -16 321 -31 594 -43 173 -7 388 -1 690 18 85 6 270 15 410 21 394 17
560 27 625 38 33 5 85 14 116 20 70 12 220 86 299 148 l60 46 0 71 c0 39 -4
76 -8 82 -4 6 -41 23 -82 38 -41 15 -93 35 -115 43 -43 16 -112 39 -320 105
-71 22 -182 67 -245 98 -127 64 -142 71 -283 125 -93 37 -96 39 -80 57 10 12
30 18 57 18 58 0 166 23 271 58 110 36 183 57 255 75 58 15 70 30 50 67 -11
21 -14 21 -253 15 l-242 -7 -120 31 c-118 30 -235 71 -235 81 0 3 34 23 75 44
111 59 269 223 362 376 128 211 141 235 173 318 31 81 31 84 15 117 -9 19 -22
35 -30 35 -16 0 -123 -87 -152 -123 -10 -13 -65 -74 -121 -134 -86 -93 -129
-128 -266 -221 -122 -83 -175 -113 -212 -120 -27 -6 -85 -19 -129 -30 -159
-39 -146 -41 -228 29 -39 35 -106 93 -147 130 -41 37 -112 94 -156 126 -85 61
-110 79 -232 178 -41 33 -109 86 -151 119 -42 32 -101 80 -132 107 -51 44
-313 180 -434 226 -22 8 -49 19 -60 23 -11 5 -29 10 -40 13 -11 3 -60 17 -110
32 -49 15 -103 31 -120 35 -16 5 -70 21 -120 35 -49 15 -103 30 -120 35 -146
41 -129 40 -380 30 -132 -6 -255 -15 -275 -20 -50 -12 -239 -48 -385 -71 -33
-5 -129 -32 -213 -60 -85 -28 -155 -49 -157 -47 -11 12 -25 155 -25 254 0 65
-6 169 -14 229 l-14 110 -98 165 c-84 140 -113 180 -195 261 l-95 96 -61 159
c-57 147 -102 280 -117 346 -10 43 34 68 121 68 38 0 89 6 114 14 24 8 91 28
149 46 153 46 229 75 385 151 228 111 386 207 545 334 63 50 160 127 215 170
55 43 279 255 498 469 296 291 416 415 467 486 38 52 114 156 169 230 91 124
214 310 288 435 17 28 82 134 146 237 129 209 122 194 207 408 34 85 68 169
75 185 8 17 23 57 36 90 12 33 25 65 29 70 8 13 34 87 49 145 7 25 16 59 21
75 32 116 41 177 38 265 l-3 95 -64 3 c-41 2 -75 -2 -95 -12 -17 -8 -52 -24
-78 -35 -25 -11 -64 -35 -85 -54 -103 -91 -500 -384 -508 -375 -6 6 61 155
104 233 151 276 177 327 199 390 11 33 37 105 57 160 20 55 50 141 66 190 17
50 34 99 39 110 5 11 16 43 25 70 10 28 21 59 26 70 22 54 72 216 79 260 4 28
15 91 24 140 9 50 21 117 27 150 11 61 19 105 38 210 13 74 14 416 1 468 -6
20 -15 54 -21 75 -6 20 -13 48 -16 62 -4 13 -19 44 -35 69 l-28 45 -1 295 c0
163 -4 341 -9 396 -26 303 -31 355 -41 408 -7 32 -16 60 -20 63 -5 3 -9 16 -9
29 0 19 -8 26 -37 34 -53 15 -62 13 -109 -17z"/>
</g>
</svg>
